<?xml version="1.0" encoding="UTF-8"?>
<!DOCTYPE svg PUBLIC "-//W3C//DTD SVG 1.1//EN" "http://www.w3.org/Graphics/SVG/1.1/DTD/svg11.dtd">
<svg xmlns="http://www.w3.org/2000/svg" version="1.1" width="399px" height="126px" style="shape-rendering:geometricPrecision; text-rendering:geometricPrecision; image-rendering:optimizeQuality; fill-rule:evenodd; clip-rule:evenodd" xmlns:xlink="http://www.w3.org/1999/xlink">
<g><path style="opacity:1" fill="#fdfdfd" d="M -0.5,-0.5 C 132.5,-0.5 265.5,-0.5 398.5,-0.5C 398.5,41.5 398.5,83.5 398.5,125.5C 265.5,125.5 132.5,125.5 -0.5,125.5C -0.5,83.5 -0.5,41.5 -0.5,-0.5 Z"/></g>
<g><path style="opacity:1" fill="#1266e3" d="M 4.5,0.5 C 12.5091,1.00131 14.5091,4.66798 10.5,11.5C 9.16667,23.1667 9.16667,34.8333 10.5,46.5C 19.8333,41.1667 29.1667,35.8333 38.5,30.5C 39.641,24.847 42.9744,22.6803 48.5,24C 50.4875,25.3189 51.6541,27.1523 52,29.5C 61.2519,35.5443 70.7519,41.2109 80.5,46.5C 87.7447,44.3688 90.9114,47.0355 90,54.5C 89,55.5 88,56.5 87,57.5C 86.3333,68.5 86.3333,79.5 87,90.5C 90.7401,93.2005 91.4068,96.5338 89,100.5C 86.0552,102.627 82.8885,103.127 79.5,102C 71.3283,106.92 62.995,111.587 54.5,116C 52.3588,118.546 50.3588,121.212 48.5,124C 46.5,124.667 44.5,124.667 42.5,124C 40.8537,121.035 38.8537,118.368 36.5,116C 28.3283,111.08 19.995,106.413 11.5,102C 7.14551,103.534 3.64551,102.367 1,98.5C -0.109341,95.0528 0.890659,92.3862 4,90.5C 4.66667,79.5 4.66667,68.5 4,57.5C -0.334695,53.8938 -0.501362,50.2272 3.5,46.5C 4.6658,35.1813 4.83247,23.848 4,12.5C -0.737233,8.17251 -0.570567,4.17251 4.5,0.5 Z"/></g>
<g><path style="opacity:1" fill="#242021" d="M 342.5,29.5 C 341.5,29.5 340.5,29.5 339.5,29.5C 339.5,27.8333 339.5,26.1667 339.5,24.5C 342.833,24.5 346.167,24.5 349.5,24.5C 349.5,29.1667 349.5,33.8333 349.5,38.5C 343.963,40.2912 338.296,40.7912 332.5,40C 324.897,35.605 322.397,29.105 325,20.5C 328.708,14.1495 334.208,11.6495 341.5,13C 349.045,13.6141 350.045,16.1141 344.5,20.5C 333.46,15.9477 328.96,19.6143 331,31.5C 335.33,36.4463 339.497,36.613 343.5,32C 343.472,30.9302 343.139,30.0968 342.5,29.5 Z"/></g>
<g><path style="opacity:1" fill="#252223" d="M 359.5,33.5 C 363.298,34.4834 367.298,34.8168 371.5,34.5C 371.5,36.1667 371.5,37.8333 371.5,39.5C 365.5,39.5 359.5,39.5 353.5,39.5C 353.5,30.5 353.5,21.5 353.5,12.5C 359.5,12.5 365.5,12.5 371.5,12.5C 371.5,14.5 371.5,16.5 371.5,18.5C 367.5,18.5 363.5,18.5 359.5,18.5C 359.5,20.1667 359.5,21.8333 359.5,23.5C 363.167,23.5 366.833,23.5 370.5,23.5C 370.5,25.1667 370.5,26.8333 370.5,28.5C 366.833,28.5 363.167,28.5 359.5,28.5C 359.5,30.1667 359.5,31.8333 359.5,33.5 Z"/></g>
<g><path style="opacity:1" fill="#262223" d="M 376.5,12.5 C 381.179,12.3342 385.845,12.5008 390.5,13C 395.617,14.7317 397.45,18.2317 396,23.5C 395.027,25.64 393.527,27.3067 391.5,28.5C 393.102,32.0954 395.102,35.4288 397.5,38.5C 395.167,39.8333 392.833,39.8333 390.5,38.5C 388.58,35.6612 386.913,32.6612 385.5,29.5C 384.675,28.6143 383.675,28.281 382.5,28.5C 382.5,32.1667 382.5,35.8333 382.5,39.5C 380.5,39.5 378.5,39.5 376.5,39.5C 376.5,30.5 376.5,21.5 376.5,12.5 Z"/></g>
<g><path style="opacity:1" fill="#272324" d="M 122.5,13.5 C 124.5,13.5 126.5,13.5 128.5,13.5C 128.5,16.8333 128.5,20.1667 128.5,23.5C 132.167,23.5 135.833,23.5 139.5,23.5C 139.5,20.1667 139.5,16.8333 139.5,13.5C 141.5,13.5 143.5,13.5 145.5,13.5C 145.5,22.1667 145.5,30.8333 145.5,39.5C 143.5,39.5 141.5,39.5 139.5,39.5C 139.5,35.8333 139.5,32.1667 139.5,28.5C 135.833,28.5 132.167,28.5 128.5,28.5C 128.5,32.1667 128.5,35.8333 128.5,39.5C 126.5,39.5 124.5,39.5 122.5,39.5C 122.5,30.8333 122.5,22.1667 122.5,13.5 Z"/></g>
<g><path style="opacity:1" fill="#242021" d="M 149.5,14.5 C 152.024,13.1997 154.691,13.1997 157.5,14.5C 159.167,17.1667 160.833,19.8333 162.5,22.5C 164.611,19.7919 166.611,16.9586 168.5,14C 170.833,13.3333 173.167,13.3333 175.5,14C 172.333,18.5 169.167,23 166,27.5C 165.501,31.4862 165.334,35.4862 165.5,39.5C 163.5,39.5 161.5,39.5 159.5,39.5C 160.335,29.5033 157.002,21.17 149.5,14.5 Z"/></g>
<g><path style="opacity:1" fill="#252122" d="M 179.5,13.5 C 184.511,13.3341 189.511,13.5007 194.5,14C 200.377,17.8043 201.044,22.471 196.5,28C 192.94,29.2367 189.273,29.7367 185.5,29.5C 185.5,32.8333 185.5,36.1667 185.5,39.5C 183.5,39.5 181.5,39.5 179.5,39.5C 179.5,30.8333 179.5,22.1667 179.5,13.5 Z"/></g>
<g><path style="opacity:1" fill="#201c1d" d="M 209.5,23.5 C 212.962,24.4816 216.629,24.815 220.5,24.5C 220.5,25.8333 220.5,27.1667 220.5,28.5C 216.629,28.185 212.962,28.5184 209.5,29.5C 209.5,31.1667 209.5,32.8333 209.5,34.5C 213.833,34.5 218.167,34.5 222.5,34.5C 222.5,36.1667 222.5,37.8333 222.5,39.5C 216.167,39.5 209.833,39.5 203.5,39.5C 203.5,30.8333 203.5,22.1667 203.5,13.5C 209.5,13.5 215.5,13.5 221.5,13.5C 221.5,15.1667 221.5,16.8333 221.5,18.5C 217.5,18.5 213.5,18.5 209.5,18.5C 209.5,20.1667 209.5,21.8333 209.5,23.5 Z"/></g>
<g><path style="opacity:1" fill="#221f20" d="M 226.5,13.5 C 231.511,13.3341 236.511,13.5007 241.5,14C 245.861,16.2258 247.361,19.7258 246,24.5C 245.027,26.64 243.527,28.3067 241.5,29.5C 243.375,32.7511 245.375,35.9177 247.5,39C 245.167,39.6667 242.833,39.6667 240.5,39C 238.873,36.2458 237.373,33.4125 236,30.5C 234.989,29.6634 233.822,29.33 232.5,29.5C 232.5,32.8333 232.5,36.1667 232.5,39.5C 230.5,39.5 228.5,39.5 226.5,39.5C 226.5,30.8333 226.5,22.1667 226.5,13.5 Z"/></g>
<g><path style="opacity:1" fill="#211d1e" d="M 251.5,13.5 C 253.5,13.5 255.5,13.5 257.5,13.5C 257.5,20.5 257.5,27.5 257.5,34.5C 261.167,34.5 264.833,34.5 268.5,34.5C 268.5,36.1667 268.5,37.8333 268.5,39.5C 262.833,39.5 257.167,39.5 251.5,39.5C 251.5,30.8333 251.5,22.1667 251.5,13.5 Z"/></g>
<g><path style="opacity:1" fill="#211e1f" d="M 278.5,23.5 C 281.962,24.4816 285.629,24.815 289.5,24.5C 289.5,25.8333 289.5,27.1667 289.5,28.5C 288.209,28.2627 287.209,28.596 286.5,29.5C 283.833,29.5 281.167,29.5 278.5,29.5C 278.5,31.1667 278.5,32.8333 278.5,34.5C 282.833,34.5 287.167,34.5 291.5,34.5C 291.5,36.1667 291.5,37.8333 291.5,39.5C 285.167,39.5 278.833,39.5 272.5,39.5C 272.5,30.8333 272.5,22.1667 272.5,13.5C 278.5,13.5 284.5,13.5 290.5,13.5C 290.5,15.1667 290.5,16.8333 290.5,18.5C 286.5,18.5 282.5,18.5 278.5,18.5C 278.5,20.1667 278.5,21.8333 278.5,23.5 Z"/></g>
<g><path style="opacity:1" fill="#201d1e" d="M 295.5,13.5 C 300.511,13.3341 305.511,13.5007 310.5,14C 319.526,17.8331 322.026,24.3331 318,33.5C 316.5,35 315,36.5 313.5,38C 307.593,39.3608 301.593,39.8608 295.5,39.5C 295.5,30.8333 295.5,22.1667 295.5,13.5 Z"/></g>
<g><path style="opacity:1" fill="#7e7c7c" d="M 388.5,18.5 C 386.5,18.5 384.5,18.5 382.5,18.5C 382.5,20.1667 382.5,21.8333 382.5,23.5C 381.539,21.7354 381.205,19.7354 381.5,17.5C 384.059,17.1984 386.393,17.5318 388.5,18.5 Z"/></g>
<g><path style="opacity:1" fill="#f9f9f9" d="M 388.5,18.5 C 390.582,19.5849 390.916,21.0849 389.5,23C 387.19,23.4966 384.857,23.6633 382.5,23.5C 382.5,21.8333 382.5,20.1667 382.5,18.5C 384.5,18.5 386.5,18.5 388.5,18.5 Z"/></g>
<g><path style="opacity:1" fill="#f5f4f4" d="M 185.5,18.5 C 187.527,18.3379 189.527,18.5045 191.5,19C 194.003,20.5494 194.003,22.2161 191.5,24C 189.527,24.4955 187.527,24.6621 185.5,24.5C 185.5,22.5 185.5,20.5 185.5,18.5 Z"/></g>
<g><path style="opacity:1" fill="#f2f2f2" d="M 232.5,18.5 C 234.857,18.3367 237.19,18.5034 239.5,19C 240.833,20.6667 240.833,22.3333 239.5,24C 237.19,24.4966 234.857,24.6633 232.5,24.5C 232.5,22.5 232.5,20.5 232.5,18.5 Z"/></g>
<g><path style="opacity:1" fill="#f6f5f5" d="M 301.5,18.5 C 310.732,17.5624 314.566,21.5624 313,30.5C 310.056,34.1136 306.223,35.4469 301.5,34.5C 301.5,29.1667 301.5,23.8333 301.5,18.5 Z"/></g>
<g><path style="opacity:1" fill="#656363" d="M 209.5,23.5 C 213.5,23.5 217.5,23.5 221.5,23.5C 221.5,25.5 221.5,27.5 221.5,29.5C 217.5,29.5 213.5,29.5 209.5,29.5C 212.962,28.5184 216.629,28.185 220.5,28.5C 220.5,27.1667 220.5,25.8333 220.5,24.5C 216.629,24.815 212.962,24.4816 209.5,23.5 Z"/></g>
<g><path style="opacity:1" fill="#b3b2b2" d="M 349.5,24.5 C 346.167,24.5 342.833,24.5 339.5,24.5C 339.5,26.1667 339.5,27.8333 339.5,29.5C 340.5,29.5 341.5,29.5 342.5,29.5C 341.432,30.4345 340.099,30.7678 338.5,30.5C 338.5,28.1667 338.5,25.8333 338.5,23.5C 342.371,23.185 346.038,23.5184 349.5,24.5 Z"/></g>
<g><path style="opacity:1" fill="#828181" d="M 278.5,23.5 C 282.5,23.5 286.5,23.5 290.5,23.5C 290.5,25.5 290.5,27.5 290.5,29.5C 289.167,29.5 287.833,29.5 286.5,29.5C 287.209,28.596 288.209,28.2627 289.5,28.5C 289.5,27.1667 289.5,25.8333 289.5,24.5C 285.629,24.815 281.962,24.4816 278.5,23.5 Z"/></g>
<g><path style="opacity:1" fill="#797878" d="M 359.5,33.5 C 363.833,33.5 368.167,33.5 372.5,33.5C 372.795,35.7354 372.461,37.7354 371.5,39.5C 371.5,37.8333 371.5,36.1667 371.5,34.5C 367.298,34.8168 363.298,34.4834 359.5,33.5 Z"/></g>
<g><path style="opacity:1" fill="#fafdfd" d="M 47.5,34.5 C 58.6246,39.2259 68.9579,45.2259 78.5,52.5C 76.1153,57.0604 73.1153,61.227 69.5,65C 61.2193,71.9456 52.3859,78.1123 43,83.5C 42.2025,85.2588 42.3691,86.9255 43.5,88.5C 57.9743,81.3508 70.4743,71.6841 81,59.5C 81.6667,69.1667 81.6667,78.8333 81,88.5C 77.5349,84.0332 73.7016,79.8666 69.5,76C 67.5826,76.0275 65.916,76.8608 64.5,78.5C 69.1853,82.3516 73.352,86.685 77,91.5C 78.1871,93.0444 78.5205,94.7111 78,96.5C 68.3333,102.167 58.6667,107.833 49,113.5C 45.4137,110.004 43.0804,105.671 42,100.5C 40.2997,88.8949 39.2997,77.2282 39,65.5C 37.9148,64.7069 36.7481,64.0402 35.5,63.5C 33.4572,80.264 34.9572,96.5974 40,112.5C 31.9158,107.541 23.7491,102.707 15.5,98C 20.8987,96.9203 26.2321,95.587 31.5,94C 32.4061,92.3005 32.7394,90.4672 32.5,88.5C 26.7209,90.6617 20.7209,91.995 14.5,92.5C 12.626,92.6102 11.126,91.9436 10,90.5C 9.16753,79.152 9.3342,67.8187 10.5,56.5C 17.3585,55.3006 24.0251,56.1339 30.5,59C 39.5226,62.5937 48.0226,67.0937 56,72.5C 58.2677,71.9236 59.2677,70.5902 59,68.5C 46.0181,58.837 31.5181,52.6703 15.5,50C 23.6313,45.3654 31.6313,40.532 39.5,35.5C 39.8333,35.8333 40.1667,36.1667 40.5,36.5C 37.728,41.8606 36.5613,47.5273 37,53.5C 38.7141,54.9255 40.0475,54.5922 41,52.5C 41.9543,45.9871 44.121,39.9871 47.5,34.5 Z"/></g>
<g><path style="opacity:1" fill="#1266e3" d="M 226.5,59.5 C 232.245,59.2111 237.912,59.7111 243.5,61C 246.603,62.2807 249.269,64.1141 251.5,66.5C 250.396,68.3885 249.063,70.0552 247.5,71.5C 241.85,66.2524 235.183,64.4191 227.5,66C 220.93,69.0923 219.93,73.4256 224.5,79C 231.489,81.3297 238.489,83.663 245.5,86C 252.667,91.1734 254.5,98.0068 251,106.5C 244.351,113.731 236.185,116.231 226.5,114C 220.707,112.915 216.04,110.081 212.5,105.5C 213.5,103.833 214.833,102.5 216.5,101.5C 221.292,105.487 226.792,107.82 233,108.5C 242.314,108.859 246.314,104.525 245,95.5C 244.167,94.6667 243.333,93.8333 242.5,93C 235.184,90.3342 227.85,87.6676 220.5,85C 213.968,79.6127 212.801,73.1127 217,65.5C 219.855,62.7731 223.022,60.7731 226.5,59.5 Z"/></g>
<g><path style="opacity:1" fill="#1266e3" d="M 151.5,60.5 C 142.167,60.5 132.833,60.5 123.5,60.5C 123.5,78.1667 123.5,95.8333 123.5,113.5C 122.503,95.6744 122.17,77.6744 122.5,59.5C 132.348,59.1729 142.014,59.5062 151.5,60.5 Z"/></g>
<g><path style="opacity:1" fill="#1266e3" d="M 151.5,60.5 C 160.425,63.2987 163.592,69.2987 161,78.5C 159.737,82.2189 157.237,84.7189 153.5,86C 161.827,89.4934 164.66,95.6601 162,104.5C 160.412,109.052 157.245,111.885 152.5,113C 142.839,113.5 133.172,113.666 123.5,113.5C 123.5,95.8333 123.5,78.1667 123.5,60.5C 132.833,60.5 142.167,60.5 151.5,60.5 Z"/></g>
<g><path style="opacity:1" fill="#1266e3" d="M 178.5,66.5 C 187.652,65.5064 196.985,65.1731 206.5,65.5C 206.5,63.8333 206.5,62.1667 206.5,60.5C 195.167,60.5 183.833,60.5 172.5,60.5C 172.5,77.8333 172.5,95.1667 172.5,112.5C 183.833,112.5 195.167,112.5 206.5,112.5C 206.5,110.833 206.5,109.167 206.5,107.5C 207.461,109.265 207.795,111.265 207.5,113.5C 195.5,113.5 183.5,113.5 171.5,113.5C 171.5,95.5 171.5,77.5 171.5,59.5C 183.5,59.5 195.5,59.5 207.5,59.5C 207.5,61.8333 207.5,64.1667 207.5,66.5C 197.833,66.5 188.167,66.5 178.5,66.5 Z"/></g>
<g><path style="opacity:1" fill="#1266e3" d="M 268.5,95.5 C 267.505,84.012 267.172,72.3453 267.5,60.5C 265.5,60.5 263.5,60.5 261.5,60.5C 261.5,72.5 261.5,84.5 261.5,96.5C 260.505,84.3446 260.171,72.0113 260.5,59.5C 263.167,59.5 265.833,59.5 268.5,59.5C 268.5,71.5 268.5,83.5 268.5,95.5 Z"/></g>
<g><path style="opacity:1" fill="#1266e3" d="M 304.5,94.5 C 304.5,83.1667 304.5,71.8333 304.5,60.5C 302.5,60.5 300.5,60.5 298.5,60.5C 298.828,72.6783 298.495,84.6783 297.5,96.5C 297.5,84.1667 297.5,71.8333 297.5,59.5C 300.167,59.5 302.833,59.5 305.5,59.5C 305.828,71.3453 305.495,83.012 304.5,94.5 Z"/></g>
<g><path style="opacity:1" fill="#1266e3" d="M 178.5,66.5 C 178.5,72.1667 178.5,77.8333 178.5,83.5C 187.833,83.5 197.167,83.5 206.5,83.5C 206.5,85.5 206.5,87.5 206.5,89.5C 197.167,89.5 187.833,89.5 178.5,89.5C 178.5,95.5 178.5,101.5 178.5,107.5C 187.833,107.5 197.167,107.5 206.5,107.5C 206.5,109.167 206.5,110.833 206.5,112.5C 195.167,112.5 183.833,112.5 172.5,112.5C 172.5,95.1667 172.5,77.8333 172.5,60.5C 183.833,60.5 195.167,60.5 206.5,60.5C 206.5,62.1667 206.5,63.8333 206.5,65.5C 196.985,65.1731 187.652,65.5064 178.5,66.5 Z"/></g>
<g><path style="opacity:1" fill="#1266e3" d="M 268.5,95.5 C 269.286,103.909 273.953,108.242 282.5,108.5C 290.891,108.498 295.891,104.498 297.5,96.5C 298.495,84.6783 298.828,72.6783 298.5,60.5C 300.5,60.5 302.5,60.5 304.5,60.5C 304.5,71.8333 304.5,83.1667 304.5,94.5C 303.258,107.738 295.924,114.405 282.5,114.5C 270.528,114.189 263.528,108.189 261.5,96.5C 261.5,84.5 261.5,72.5 261.5,60.5C 263.5,60.5 265.5,60.5 267.5,60.5C 267.172,72.3453 267.505,84.012 268.5,95.5 Z"/></g>
<g><path style="opacity:1" fill="#bee1e1" d="M 148.5,66.5 C 142.5,66.5 136.5,66.5 130.5,66.5C 130.5,71.8333 130.5,77.1667 130.5,82.5C 136.167,82.5 141.833,82.5 147.5,82.5C 141.69,83.4896 135.69,83.8229 129.5,83.5C 129.5,77.5 129.5,71.5 129.5,65.5C 136.022,65.1765 142.355,65.5098 148.5,66.5 Z"/></g>
<g><path style="opacity:1" fill="#fefefe" d="M 148.5,66.5 C 154.387,69.0127 156.053,73.3461 153.5,79.5C 151.929,81.415 149.929,82.415 147.5,82.5C 141.833,82.5 136.167,82.5 130.5,82.5C 130.5,77.1667 130.5,71.8333 130.5,66.5C 136.5,66.5 142.5,66.5 148.5,66.5 Z"/></g>
<g><path style="opacity:1" fill="#f7fbfb" d="M 129.5,88.5 C 135.842,88.3338 142.175,88.5005 148.5,89C 155.106,91.2534 157.273,95.7534 155,102.5C 154.5,104.333 153.333,105.5 151.5,106C 144.254,107.391 136.921,107.891 129.5,107.5C 129.5,101.167 129.5,94.8333 129.5,88.5 Z"/></g>
</svg>
